<?xml version="1.0" standalone="no"?>
<!DOCTYPE svg PUBLIC "-//W3C//DTD SVG 20010904//EN"
 "http://www.w3.org/TR/2001/REC-SVG-20010904/DTD/svg10.dtd">
<svg version="1.0" xmlns="http://www.w3.org/2000/svg"
 width="260.000000pt" height="260.000000pt" viewBox="0 0 260.000000 260.000000"
 preserveAspectRatio="xMidYMid meet">
<metadata>
Created by potrace 1.11, written by Peter Selinger 2001-2013
</metadata>
<g transform="translate(0.000000,260.000000) scale(0.100000,-0.100000)"
fill="#000000" stroke="none">
<path d="M1248 2478 c-323 -420 -659 -951 -947 -1501 -68 -131 -238 -469 -266
-532 -10 -22 -20 -43 -22 -48 -3 -4 46 -32 109 -61 62 -29 156 -74 208 -98
256 -122 397 -187 410 -191 5 -1 41 62 79 139 l69 142 838 0 c462 0 847 1 857
1 16 1 17 16 15 214 l-3 212 -502 0 c-277 0 -503 4 -503 8 0 5 12 29 28 55 15
26 32 55 37 64 37 67 144 238 239 383 159 241 282 408 494 671 20 26 121 140
174 198 l37 41 1 213 0 212 -629 0 -628 0 -95 -122z"/>
</g>
</svg>
